<mxfile host="app.diagrams.net" agent="Mozilla/5.0 (Windows NT 10.0; Win64; x64) AppleWebKit/537.36 (KHTML, like Gecko) Chrome/141.0.0.0 Safari/537.36" version="28.2.5">
  <diagram name="Page-1" id="Fjj5QxoTrATbzCr_cNDZ">
    <mxGraphModel dx="2916" dy="1137" grid="1" gridSize="10" guides="1" tooltips="1" connect="1" arrows="1" fold="1" page="1" pageScale="1" pageWidth="850" pageHeight="1100" math="0" shadow="0">
      <root>
        <mxCell id="0" />
        <mxCell id="1" parent="0" />
        <mxCell id="0JgFmAXodG2SID1Pz15g-6" style="edgeStyle=orthogonalEdgeStyle;rounded=0;orthogonalLoop=1;jettySize=auto;html=1;" edge="1" parent="1" source="0JgFmAXodG2SID1Pz15g-1">
          <mxGeometry relative="1" as="geometry">
            <mxPoint x="70" y="160" as="targetPoint" />
          </mxGeometry>
        </mxCell>
        <mxCell id="0JgFmAXodG2SID1Pz15g-1" value="&lt;b&gt;Query request&lt;/b&gt;" style="ellipse;whiteSpace=wrap;html=1;aspect=fixed;strokeColor=#99CCFF;fillColor=#E6E6E6;" vertex="1" parent="1">
          <mxGeometry x="-130" y="100" width="120" height="120" as="geometry" />
        </mxCell>
        <mxCell id="0JgFmAXodG2SID1Pz15g-2" value="" style="rounded=1;whiteSpace=wrap;html=1;strokeColor=#99CCFF;shadow=1;fillColor=#E6E6E6;" vertex="1" parent="1">
          <mxGeometry x="80" y="120" width="120" height="80" as="geometry" />
        </mxCell>
        <mxCell id="0JgFmAXodG2SID1Pz15g-3" value="&lt;b&gt;&lt;u&gt;Block #1&lt;/u&gt;&lt;/b&gt;" style="text;html=1;align=center;verticalAlign=middle;whiteSpace=wrap;rounded=0;" vertex="1" parent="1">
          <mxGeometry x="110" y="120" width="60" height="30" as="geometry" />
        </mxCell>
        <mxCell id="0JgFmAXodG2SID1Pz15g-4" value="&lt;i&gt;Hash: 0x4a2...&lt;/i&gt;" style="text;html=1;align=center;verticalAlign=middle;whiteSpace=wrap;rounded=0;" vertex="1" parent="1">
          <mxGeometry x="80" y="150" width="90" height="30" as="geometry" />
        </mxCell>
        <mxCell id="0JgFmAXodG2SID1Pz15g-5" value="&lt;i&gt;Size: 1.2 MB&lt;/i&gt;" style="text;html=1;align=center;verticalAlign=middle;whiteSpace=wrap;rounded=0;" vertex="1" parent="1">
          <mxGeometry x="80" y="170" width="80" height="30" as="geometry" />
        </mxCell>
        <mxCell id="0JgFmAXodG2SID1Pz15g-9" value="" style="rounded=1;whiteSpace=wrap;html=1;strokeColor=#99CCFF;shadow=1;fillColor=#E6E6E6;" vertex="1" parent="1">
          <mxGeometry x="280" y="120" width="120" height="80" as="geometry" />
        </mxCell>
        <mxCell id="0JgFmAXodG2SID1Pz15g-10" value="&lt;b&gt;&lt;u&gt;Block #2&lt;/u&gt;&lt;/b&gt;" style="text;html=1;align=center;verticalAlign=middle;whiteSpace=wrap;rounded=0;" vertex="1" parent="1">
          <mxGeometry x="310" y="120" width="60" height="30" as="geometry" />
        </mxCell>
        <mxCell id="0JgFmAXodG2SID1Pz15g-11" value="&lt;i&gt;Size: 1.3 MB&lt;/i&gt;" style="text;html=1;align=center;verticalAlign=middle;whiteSpace=wrap;rounded=0;" vertex="1" parent="1">
          <mxGeometry x="280" y="170" width="80" height="30" as="geometry" />
        </mxCell>
        <mxCell id="0JgFmAXodG2SID1Pz15g-12" value="&lt;i&gt;Hash: 0x5b5...&lt;/i&gt;" style="text;html=1;align=center;verticalAlign=middle;whiteSpace=wrap;rounded=0;" vertex="1" parent="1">
          <mxGeometry x="280" y="150" width="90" height="30" as="geometry" />
        </mxCell>
        <mxCell id="0JgFmAXodG2SID1Pz15g-13" value="" style="endArrow=none;dashed=1;html=1;dashPattern=1 3;strokeWidth=2;rounded=0;" edge="1" parent="1">
          <mxGeometry width="50" height="50" relative="1" as="geometry">
            <mxPoint x="210" y="160" as="sourcePoint" />
            <mxPoint x="270" y="160" as="targetPoint" />
          </mxGeometry>
        </mxCell>
        <mxCell id="0JgFmAXodG2SID1Pz15g-14" value="" style="rounded=1;whiteSpace=wrap;html=1;strokeColor=#99CCFF;shadow=1;fillColor=#E6E6E6;" vertex="1" parent="1">
          <mxGeometry x="480" y="120" width="120" height="80" as="geometry" />
        </mxCell>
        <mxCell id="0JgFmAXodG2SID1Pz15g-15" value="&lt;b&gt;&lt;u&gt;Block #n-1&lt;/u&gt;&lt;/b&gt;" style="text;html=1;align=center;verticalAlign=middle;whiteSpace=wrap;rounded=0;" vertex="1" parent="1">
          <mxGeometry x="510" y="120" width="70" height="30" as="geometry" />
        </mxCell>
        <mxCell id="0JgFmAXodG2SID1Pz15g-16" value="&lt;i&gt;Hash: 0x9i8...&lt;/i&gt;" style="text;html=1;align=center;verticalAlign=middle;whiteSpace=wrap;rounded=0;" vertex="1" parent="1">
          <mxGeometry x="480" y="150" width="90" height="30" as="geometry" />
        </mxCell>
        <mxCell id="0JgFmAXodG2SID1Pz15g-17" value="" style="endArrow=none;dashed=1;html=1;dashPattern=1 3;strokeWidth=2;rounded=0;" edge="1" parent="1">
          <mxGeometry width="50" height="50" relative="1" as="geometry">
            <mxPoint x="610" y="159.5" as="sourcePoint" />
            <mxPoint x="670" y="159.5" as="targetPoint" />
          </mxGeometry>
        </mxCell>
        <mxCell id="0JgFmAXodG2SID1Pz15g-18" value="&lt;i&gt;Size: 1.35 MB&lt;/i&gt;" style="text;html=1;align=center;verticalAlign=middle;whiteSpace=wrap;rounded=0;" vertex="1" parent="1">
          <mxGeometry x="480" y="170" width="80" height="30" as="geometry" />
        </mxCell>
        <mxCell id="0JgFmAXodG2SID1Pz15g-23" value="" style="rounded=1;whiteSpace=wrap;html=1;strokeColor=#00FF00;shadow=4;fillColor=#E6E6E6;strokeWidth=6;" vertex="1" parent="1">
          <mxGeometry x="680" y="120" width="120" height="80" as="geometry" />
        </mxCell>
        <mxCell id="0JgFmAXodG2SID1Pz15g-24" value="&lt;b&gt;&lt;u style=&quot;background-color: rgb(80, 255, 97);&quot;&gt;Block #n&lt;/u&gt;&lt;/b&gt;" style="text;html=1;align=center;verticalAlign=middle;whiteSpace=wrap;rounded=0;" vertex="1" parent="1">
          <mxGeometry x="710" y="120" width="70" height="30" as="geometry" />
        </mxCell>
        <mxCell id="0JgFmAXodG2SID1Pz15g-25" value="&lt;i&gt;Hash: 0xo98...&lt;/i&gt;" style="text;html=1;align=center;verticalAlign=middle;whiteSpace=wrap;rounded=0;" vertex="1" parent="1">
          <mxGeometry x="685" y="160" width="90" height="30" as="geometry" />
        </mxCell>
        <mxCell id="0JgFmAXodG2SID1Pz15g-26" value="&lt;i&gt;Size: 1.36 MB&lt;/i&gt;" style="text;html=1;align=center;verticalAlign=middle;whiteSpace=wrap;rounded=0;" vertex="1" parent="1">
          <mxGeometry x="685" y="180" width="80" height="20" as="geometry" />
        </mxCell>
        <mxCell id="0JgFmAXodG2SID1Pz15g-27" value="" style="endArrow=none;dashed=1;html=1;dashPattern=1 3;strokeWidth=2;rounded=0;" edge="1" parent="1">
          <mxGeometry width="50" height="50" relative="1" as="geometry">
            <mxPoint x="410" y="159.5" as="sourcePoint" />
            <mxPoint x="470" y="159.5" as="targetPoint" />
          </mxGeometry>
        </mxCell>
        <mxCell id="0JgFmAXodG2SID1Pz15g-28" value="&lt;font style=&quot;color: rgb(0, 153, 0);&quot;&gt;&lt;b style=&quot;&quot;&gt;&lt;i&gt;TARGET DATA&lt;/i&gt;&lt;/b&gt;&lt;/font&gt;" style="text;html=1;align=center;verticalAlign=middle;whiteSpace=wrap;rounded=0;" vertex="1" parent="1">
          <mxGeometry x="685" y="140" width="90" height="30" as="geometry" />
        </mxCell>
        <mxCell id="0JgFmAXodG2SID1Pz15g-35" value="" style="endArrow=classic;html=1;rounded=0;" edge="1" parent="1">
          <mxGeometry width="50" height="50" relative="1" as="geometry">
            <mxPoint x="200" y="220" as="sourcePoint" />
            <mxPoint x="280" y="220" as="targetPoint" />
          </mxGeometry>
        </mxCell>
        <mxCell id="0JgFmAXodG2SID1Pz15g-36" value="" style="endArrow=classic;html=1;rounded=0;" edge="1" parent="1">
          <mxGeometry width="50" height="50" relative="1" as="geometry">
            <mxPoint x="400" y="220" as="sourcePoint" />
            <mxPoint x="480" y="220" as="targetPoint" />
          </mxGeometry>
        </mxCell>
        <mxCell id="0JgFmAXodG2SID1Pz15g-37" value="" style="endArrow=classic;html=1;rounded=0;strokeColor=#2FFF36;" edge="1" parent="1">
          <mxGeometry width="50" height="50" relative="1" as="geometry">
            <mxPoint x="600" y="220" as="sourcePoint" />
            <mxPoint x="680" y="220" as="targetPoint" />
          </mxGeometry>
        </mxCell>
        <mxCell id="0JgFmAXodG2SID1Pz15g-40" value="Sequentially scanning through blocks" style="text;html=1;align=center;verticalAlign=middle;resizable=0;points=[];autosize=1;strokeColor=none;fillColor=none;fontStyle=1" vertex="1" parent="1">
          <mxGeometry x="260" y="228" width="220" height="30" as="geometry" />
        </mxCell>
        <mxCell id="0JgFmAXodG2SID1Pz15g-42" value="Blockchain Ledger with a Thousand Blocks" style="text;html=1;align=center;verticalAlign=middle;resizable=0;points=[];autosize=1;strokeColor=none;fillColor=none;fontStyle=1;fontSize=18;" vertex="1" parent="1">
          <mxGeometry x="90" y="55" width="370" height="40" as="geometry" />
        </mxCell>
        <mxCell id="0JgFmAXodG2SID1Pz15g-43" value="Figure 1.7: Querying a blockchain ledger&amp;nbsp;" style="text;html=1;align=center;verticalAlign=middle;resizable=0;points=[];autosize=1;strokeColor=none;fillColor=none;" vertex="1" parent="1">
          <mxGeometry x="10" y="280" width="240" height="30" as="geometry" />
        </mxCell>
      </root>
    </mxGraphModel>
  </diagram>
</mxfile>
